Coordinates
version=1
nRows=15
nColumns=34
inDegrees=no

Units are S.I. units (second, meters, Newtons, ...)
If the header above contains a line with 'inDegrees', this indicates whether rotational values are in degrees (yes) or radians (no).

endheader
time	pelvis_tilt	pelvis_list	pelvis_rotation	pelvis_tx	pelvis_ty	pelvis_tz	hip_flexion_r	hip_adduction_r	hip_rotation_r	knee_angle_r	ankle_angle_r	subtalar_angle_r	mtp_angle_r	hip_flexion_l	hip_adduction_l	hip_rotation_l	knee_angle_l	ankle_angle_l	subtalar_angle_l	mtp_angle_l	lumbar_extension	lumbar_bending	lumbar_rotation	arm_flex_r	arm_add_r	arm_rot_r	elbow_flex_r	pro_sup_r	arm_flex_l	arm_add_l	arm_rot_l	elbow_flex_l	pro_sup_l
4.05	-0.494658	0.00272171	-0.0462932	-0.370886	0.637204	-0.633414	1.7818	-0.252938	0.0890366	1.806	0.624826	0.0105972	-0.117661	1.80722	-0.371842	0.0954861	1.80636	0.653579	0.27661	-0.117661	-0.288034	0.00719331	-0.0437651	0.074533	-0.423382	-0.0665042	1.56312	1.64056	0.0788915	-0.380057	-0.238466	1.50706	1.41133
4.06	-0.493749	0.0038773	-0.0452845	-0.37146	0.637081	-0.633366	1.78254	-0.253091	0.0905375	1.8063	0.624154	0.00981944	-0.117661	1.80656	-0.370941	0.0942376	1.80563	0.6528	0.275796	-0.117661	-0.289167	0.00578184	-0.0397586	0.0712864	-0.422698	-0.0718057	1.56476	1.63966	0.0866626	-0.380802	-0.229571	1.50155	1.41111
4.07	-0.492437	0.00518262	-0.0441773	-0.371976	0.637016	-0.63335	1.78287	-0.253436	0.0920801	1.80648	0.623458	0.0092336	-0.117661	1.8052	-0.369704	0.0929213	1.80465	0.651953	0.274535	-0.117661	-0.290193	0.00398379	-0.0319314	0.0641632	-0.422161	-0.0820628	1.56753	1.63881	0.0989295	-0.380506	-0.215355	1.49197	1.41044
4.08	-0.490765	0.00663214	-0.0429836	-0.372438	0.637005	-0.633363	1.78281	-0.253948	0.0936746	1.80654	0.622754	0.00879669	-0.117661	1.8032	-0.368189	0.0914948	1.8034	0.651042	0.272901	-0.117661	-0.291082	0.00180535	-0.0203795	0.0533575	-0.421862	-0.0970231	1.57126	1.63801	0.11562	-0.379228	-0.195841	1.47829	1.40903
4.09	-0.48888	0.00815827	-0.0417474	-0.372865	0.637043	-0.633395	1.78243	-0.254566	0.0952668	1.80641	0.622053	0.00843214	-0.117661	1.80075	-0.366523	0.0899589	1.80191	0.650083	0.271051	-0.117661	-0.291802	-0.000641311	-0.00593993	0.039828	-0.421829	-0.115456	1.57544	1.63724	0.135738	-0.377141	-0.172186	1.46121	1.4066
4.1	-0.487024	0.00962859	-0.0405365	-0.373284	0.637125	-0.633435	1.78187	-0.255216	0.0967294	1.80605	0.621361	0.00805084	-0.117661	1.79818	-0.364861	0.0883897	1.80023	0.649107	0.269177	-0.117661	-0.292325	-0.00313295	0.00979875	0.0252912	-0.422029	-0.135152	1.57933	1.63648	0.157353	-0.374539	-0.146702	1.44221	1.40298
4.11	-0.485475	0.010877	-0.0394233	-0.37373	0.637249	-0.633468	1.7813	-0.25583	0.0978904	1.8054	0.620677	0.0075742	-0.117661	1.7959	-0.363322	0.0869351	1.79843	0.648146	0.267435	-0.117661	-0.292646	-0.00538248	0.0248049	0.0118849	-0.422384	-0.153344	1.58204	1.63569	0.177984	-0.371793	-0.122369	1.42319	1.39812
4.12	-0.484438	0.0117737	-0.0384624	-0.374223	0.637414	-0.633487	1.78088	-0.25636	0.0986173	1.80446	0.619997	0.006942	-0.117661	1.79421	-0.361962	0.0857424	1.79656	0.64722	0.26589	-0.117661	-0.292779	-0.00716177	0.0374143	0.00132397	-0.422816	-0.167804	1.58292	1.63484	0.195597	-0.369235	-0.101617	1.40574	1.39215
4.13	-0.483999	0.0122555	-0.0376833	-0.374772	0.637619	-0.633488	1.78068	-0.256773	0.0988513	1.80325	0.619316	0.00611327	-0.117661	1.79324	-0.360776	0.0849182	1.79469	0.646334	0.264527	-0.117661	-0.292755	-0.00835078	0.0466677	-0.00544251	-0.42327	-0.177288	1.58169	1.63395	0.209016	-0.367102	-0.085816	1.39077	1.38536
4.14	-0.484132	0.0123256	-0.0370913	-0.375371	0.637863	-0.633472	1.78069	-0.257048	0.098608	1.80179	0.618626	0.0050654	-0.117661	1.793	-0.359717	0.084515	1.79284	0.645475	0.263265	-0.117661	-0.292608	-0.00893791	0.0523334	-0.00824477	-0.423713	-0.181558	1.5784	1.63302	0.21795	-0.365523	-0.0752497	1.37857	1.3782
4.15	-0.484736	0.0120369	-0.0366715	-0.376007	0.638146	-0.633442	1.78088	-0.257182	0.0979577	1.80016	0.617919	0.00379582	-0.117661	1.79338	-0.358716	0.0845339	1.79103	0.644615	0.261998	-0.117661	-0.29237	-0.00899322	0.0547516	-0.00752392	-0.424137	-0.181169	1.57337	1.63203	0.222802	-0.364532	-0.069346	1.3689	1.37123
4.16	-0.485665	0.0114713	-0.0363924	-0.376665	0.638463	-0.633402	1.78116	-0.257189	0.0970009	1.79839	0.617186	0.00232618	-0.117661	1.79419	-0.357707	0.0849317	1.78927	0.643718	0.260626	-0.117661	-0.292061	-0.00863377	0.0546096	-0.00409343	-0.424544	-0.17716	1.56709	1.63096	0.224402	-0.364089	-0.0670216	1.36125	1.36498
4.17	-0.486768	0.0107202	-0.0362107	-0.377327	0.638812	-0.633359	1.78147	-0.2571	0.095847	1.79655	0.616422	0.000703727	-0.117661	1.79526	-0.356642	0.0856281	1.78758	0.642754	0.259089	-0.117661	-0.291697	-0.00799187	0.052723	0.00109677	-0.424944	-0.170758	1.5601	1.62984	0.223739	-0.364106	-0.0670184	1.35499	1.35982
4.18	-0.487904	0.00986812	-0.0360806	-0.377977	0.639193	-0.633317	1.78171	-0.256956	0.0945957	1.79467	0.615627	-0.00100429	-0.117661	1.7964	-0.355502	0.0865213	1.78593	0.641706	0.257381	-0.117661	-0.291295	-0.00719046	0.0498686	0.0071499	-0.425345	-0.163142	1.5529	1.62875	0.221763	-0.36447	-0.0681673	1.34955	1.35589
4.19	-0.488962	0.0089795	-0.0359623	-0.378603	0.639607	-0.63328	1.78182	-0.256799	0.0933202	1.79278	0.614807	-0.00272236	-0.117661	1.79746	-0.354292	0.0875123	1.78431	0.640575	0.255534	-0.117661	-0.29087	-0.00632632	0.0466808	0.0133469	-0.425755	-0.155282	1.54585	1.62776	0.219247	-0.365067	-0.0695538	1.34443	1.35314
